<svg xmlns="http://www.w3.org/2000/svg" viewBox="0 0 593.76331 594.0033">
  <g id="Rectangle_4" data-name="Rectangle 4" style="isolation: isolate">
    <g id="Rectangle_4-2" data-name="Rectangle 4">
      <path d="M48.00006,0H545.76324a48.00006,48.00006,0,0,1,48.00006,48.00006V546.0033a48,48,0,0,1-48,48H48a48,48,0,0,1-48-48V48.00006A48.00006,48.00006,0,0,1,48.00006,0Z" style="fill: #ff4c0c"/>
    </g>
  </g>
  <g id="Shape_1" data-name="Shape 1" style="isolation: isolate">
    <g id="Shape_1-2" data-name="Shape 1">
      <path d="M383.97135,273.36c40.02918-55.26221,105.08-85.92,105.08-85.92-173.3855-.53076-226.75549,40.32-226.75549,40.32a110.77233,110.77233,0,0,1-13.29877,40.08l-40.12177-11.76c60.408-70.32569,175.09607-77.12537,175.09607-77.12537,42.734-59.50641,105.08-85.42773,105.08-85.42773-48.73755-2.254-105.08,9.4331-105.08,9.4331-97.46661,16.4206-159.347,62.24506-159.347,62.24506C211.10014,205.55213,197.881,237.22125,184.8,247.91992,171.71891,258.61865,106.76774,297.6,106.76774,297.6c39.16962,93.73834,131.86072,142.32,131.86072,142.32-18.64624-15.60407-35.839-49.92-35.839-49.92,84.36291-40.50439,146.70813,75.11994,146.70813,75.11994-20.224,11.3554-46.62921,5.52-46.62921,5.52,93.993,37.43084,186.183,31.92,186.183,31.92S408.14738,469.49884,361.92,413.04c-16.76868-20.4801-32.136-45.03-39.33441-66.86737C312.23069,314.76,314.16,288.96,314.16,288.96,344.56034,277.47315,383.97135,273.36,383.97135,273.36Z" transform="translate(-1.07829 -1.07831)" style="fill: #fff"/>
    </g>
  </g>
</svg>
